<svg xmlns="http://www.w3.org/2000/svg" width="19" height="19" viewBox="0 0 19 19" fill="none">
  <path fill-rule="evenodd" clip-rule="evenodd" d="M15.6874 15.6861C13.0133 18.3606 9.05355 18.9384 5.81311 17.4398C5.33474 17.2472 4.94255 17.0915 4.5697 17.0915C3.53118 17.0977 2.23852 18.1046 1.56669 17.4336C0.894859 16.7617 1.9026 15.468 1.9026 14.4232C1.9026 14.0503 1.75311 13.6651 1.56053 13.1858C0.0612269 9.94592 0.639845 5.98485 3.31398 3.31131C6.72765 -0.103622 12.2738 -0.103622 15.6874 3.31043C19.1073 6.73063 19.1011 12.2721 15.6874 15.6861Z" stroke="black" stroke-width="1.5" stroke-linecap="round" stroke-linejoin="round"/>
  <path d="M12.9467 9.86133H12.9546" stroke="black" stroke-width="2" stroke-linecap="round" stroke-linejoin="round"/>
  <path d="M9.43893 9.86133H9.44681" stroke="black" stroke-width="2" stroke-linecap="round" stroke-linejoin="round"/>
  <path d="M5.93112 9.86133H5.939" stroke="black" stroke-width="2" stroke-linecap="round" stroke-linejoin="round"/>
</svg>