<svg xmlns="http://www.w3.org/2000/svg" width="20" height="20" viewBox="0 0 20 20" fill="none">
  <path d="M16.6875 3.125C14.8041 3.125 13.1325 3.86844 12 5.14625C10.8675 3.86844 9.19594 3.125 7.3125 3.125C5.67208 3.12698 4.09942 3.77952 2.93947 4.93947C1.77952 6.09942 1.12698 7.67208 1.125 9.3125C1.125 16.0944 11.0447 21.5131 11.4666 21.7409C11.6305 21.8292 11.8138 21.8754 12 21.8754C12.1862 21.8754 12.3695 21.8292 12.5334 21.7409C12.9553 21.5131 22.875 16.0944 22.875 9.3125C22.873 7.67208 22.2205 6.09942 21.0605 4.93947C19.9006 3.77952 18.3279 3.12698 16.6875 3.125ZM16.1728 16.4713C14.8671 17.5792 13.4714 18.5764 12 19.4525C10.5286 18.5764 9.13287 17.5792 7.82719 16.4713C5.79562 14.7284 3.375 12.0706 3.375 9.3125C3.375 8.26821 3.78984 7.26669 4.52827 6.52827C5.26669 5.78984 6.26821 5.375 7.3125 5.375C8.98125 5.375 10.3781 6.25625 10.9584 7.67562C11.0429 7.88254 11.1871 8.05961 11.3726 8.18425C11.5581 8.30889 11.7765 8.37545 12 8.37545C12.2235 8.37545 12.4419 8.30889 12.6274 8.18425C12.8129 8.05961 12.9571 7.88254 13.0416 7.67562C13.6219 6.25625 15.0188 5.375 16.6875 5.375C17.7318 5.375 18.7333 5.78984 19.4717 6.52827C20.2102 7.26669 20.625 8.26821 20.625 9.3125C20.625 12.0706 18.2044 14.7284 16.1728 16.4713Z" fill="#191919"/>
</svg>
