<svg xmlns="http://www.w3.org/2000/svg" width="16" height="16" viewBox="0 0 16 16" fill="none">
  <path d="M8.00014 1.28577C9.47777 1.28577 10.8949 1.87275 11.9397 2.9176C12.9846 3.96245 13.5716 5.37956 13.5716 6.85719C13.5716 9.21148 11.9173 11.7772 8.65157 14.5818C8.46998 14.7378 8.23846 14.8234 7.99907 14.8232C7.75968 14.823 7.52831 14.7369 7.347 14.5806L7.131 14.3932C4.00985 11.6618 2.42871 9.15891 2.42871 6.85719C2.42871 5.37956 3.0157 3.96245 4.06054 2.9176C5.10539 1.87275 6.5225 1.28577 8.00014 1.28577ZM8.00014 4.71434C7.43182 4.71434 6.88677 4.9401 6.48491 5.34197C6.08305 5.74383 5.85728 6.28887 5.85728 6.85719C5.85728 7.42552 6.08305 7.97056 6.48491 8.37242C6.88677 8.77429 7.43182 9.00005 8.00014 9.00005C8.56846 9.00005 9.11351 8.77429 9.51537 8.37242C9.91723 7.97056 10.143 7.42552 10.143 6.85719C10.143 6.28887 9.91723 5.74383 9.51537 5.34197C9.11351 4.9401 8.56846 4.71434 8.00014 4.71434Z" fill="#666666"/>
</svg>