<svg xmlns="http://www.w3.org/2000/svg" width="20" height="22" viewBox="0 0 20 22" fill="none">
  <path fill-rule="evenodd" clip-rule="evenodd" d="M10 2.5C7.79086 2.5 6 4.29086 6 6.5C6 8.70914 7.79086 10.5 10 10.5C12.2091 10.5 14 8.70914 14 6.5C14 4.29086 12.2091 2.5 10 2.5ZM4 6.5C4 3.18629 6.68629 0.5 10 0.5C13.3137 0.5 16 3.18629 16 6.5C16 9.81371 13.3137 12.5 10 12.5C6.68629 12.5 4 9.81371 4 6.5Z" fill="#434343"/>
  <path fill-rule="evenodd" clip-rule="evenodd" d="M2.16613 19.5H17.834C17.5004 18.5106 16.6588 17.5527 15.3524 16.8076C13.9458 16.0053 12.0773 15.5 10.0001 15.5C7.92285 15.5 6.05435 16.0053 4.6478 16.8076C3.34141 17.5527 2.49978 18.5106 2.16613 19.5ZM2.00011 19.5H2.00009C1.99804 19.5 1.99815 19.4996 2.00011 19.5ZM3.65692 15.0703C5.39621 14.0783 7.6127 13.5 10.0001 13.5C12.3875 13.5 14.604 14.0783 16.3433 15.0703C18.0723 16.0565 19.4088 17.503 19.8485 19.2681C20.1813 20.6045 19.016 21.5 18.0001 21.5H2.00009C0.984152 21.5 -0.181171 20.6045 0.15172 19.2681C0.591393 17.503 1.92792 16.0565 3.65692 15.0703Z" fill="#434343"/>
</svg>