<svg width="16" height="17" viewBox="0 0 16 17" fill="none" xmlns="http://www.w3.org/2000/svg">
<g id="fluent:location-28-filled">
<path id="Vector" d="M7.9999 1.78577C9.47753 1.78577 10.8946 2.37275 11.9395 3.4176C12.9843 4.46245 13.5713 5.87956 13.5713 7.35719C13.5713 9.71148 11.917 12.2772 8.65132 15.0818C8.46974 15.2378 8.23822 15.3234 7.99883 15.3232C7.75944 15.323 7.52807 15.2369 7.34675 15.0806L7.13075 14.8932C4.00961 12.1618 2.42847 9.65891 2.42847 7.35719C2.42847 5.87956 3.01546 4.46245 4.0603 3.4176C5.10515 2.37275 6.52226 1.78577 7.9999 1.78577ZM7.9999 5.21434C7.43157 5.21434 6.88653 5.4401 6.48467 5.84197C6.0828 6.24383 5.85704 6.78887 5.85704 7.35719C5.85704 7.92552 6.0828 8.47056 6.48467 8.87242C6.88653 9.27429 7.43157 9.50005 7.9999 9.50005C8.56822 9.50005 9.11326 9.27429 9.51513 8.87242C9.91699 8.47056 10.1428 7.92552 10.1428 7.35719C10.1428 6.78887 9.91699 6.24383 9.51513 5.84197C9.11326 5.4401 8.56822 5.21434 7.9999 5.21434Z" fill="#666666"/>
</g>
</svg>
